<?xml version="1.0" standalone="no"?>
<!DOCTYPE svg PUBLIC "-//W3C//DTD SVG 20010904//EN"
 "http://www.w3.org/TR/2001/REC-SVG-20010904/DTD/svg10.dtd">
<svg version="1.0" xmlns="http://www.w3.org/2000/svg"
 width="180.000000pt" height="180.000000pt" viewBox="0 0 180.000000 180.000000"
 preserveAspectRatio="xMidYMid meet">
<metadata>
Created by potrace 1.11, written by Peter Selinger 2001-2013
</metadata>
<g transform="translate(0.000000,180.000000) scale(0.100000,-0.100000)"
fill="#000000" stroke="none">
<path d="M842 1608 c-8 -8 -12 -52 -12 -130 l0 -118 -263 0 -263 0 -72 -60
c-89 -75 -93 -97 -30 -156 97 -90 69 -84 365 -84 l263 0 0 -75 0 -75 -321 0
-322 0 6 -82 c3 -46 15 -113 27 -150 l21 -68 294 0 295 0 0 -215 0 -215 70 0
70 0 0 215 0 215 259 0 c290 0 264 -6 359 84 63 60 57 86 -39 166 l-60 50
-260 0 -259 0 0 75 0 75 306 0 305 0 -6 23 c-14 49 -87 185 -122 229 l-38 47
-222 1 -223 0 0 114 c0 91 -3 118 -16 130 -18 19 -94 22 -112 4z"/>
</g>
</svg>
